<?xml version="1.0" encoding="UTF-8"?>
<svg version="1.1" xmlns="http://www.w3.org/2000/svg" width="512" height="512">
<path d="M0 0 C5.02907498 4.27367895 7.60016132 8.93913837 8.25 15.5390625 C8.53056738 21.90443497 7.87976286 26.83075328 4 32 C-0.1049239 36.27635924 -4.15955827 39.66768231 -10.171875 40.37109375 C-19.05987756 40.53604576 -24.14204433 39.66266097 -30.5546875 33.5078125 C-33.53692245 30.25599699 -34.10417012 28.47914938 -35 24 C-60.08 24 -85.16 24 -111 24 C-111 35.88 -111 47.76 -111 60 C-106.38 60 -101.76 60 -97 60 C-90.77777778 63.73333333 -90.77777778 63.73333333 -89 68 C-88.46839473 71.65930228 -88.18749536 75.30828104 -88 79 C-86.02 79.66 -84.04 80.32 -82 81 C-81.52949219 80.50628906 -81.05898438 80.01257813 -80.57421875 79.50390625 C-79.95160156 78.86324219 -79.32898438 78.22257812 -78.6875 77.5625 C-78.07261719 76.92441406 -77.45773437 76.28632813 -76.82421875 75.62890625 C-74.21553281 73.29952288 -72.13941972 73.0131528 -68.6875 72.6875 C-64.22228121 73.06590837 -62.46412155 74.19922087 -59 77 C-58.59087057 77.50069567 -58.18174114 78.00139133 -57.76021385 78.5172596 C-55.67783157 81.04389529 -54.02642256 82.73907234 -50.79652786 83.56014633 C-48.10592219 83.77762126 -45.4712493 83.80763999 -42.77197266 83.77294922 C-41.75672516 83.78357895 -40.74147766 83.79420868 -39.69546509 83.80516052 C-36.35115844 83.8331887 -33.00843264 83.8191574 -29.6640625 83.8046875 C-27.3409182 83.81593846 -25.01778527 83.82981945 -22.69467163 83.84622192 C-16.5888294 83.88227494 -10.48348774 83.88263137 -4.37756348 83.87554932 C1.85645515 83.87463675 8.09028585 83.90749012 14.32421875 83.9375 C26.54953159 83.99137659 38.77458157 84.00754225 51 84 C51.30325195 83.0514917 51.60650391 82.1029834 51.91894531 81.12573242 C52.91788707 78.23741911 53.77915795 76.58532591 55.75 74.3125 C56.21921875 73.75175781 56.6884375 73.19101563 57.171875 72.61328125 C62.8206689 67.62834133 68.37085882 67.47028576 75.5859375 67.66015625 C81.28307377 68.22726249 84.90138875 69.70767079 88.77734375 73.94140625 C94.46691954 81.21067602 94.89885944 87.88011151 94 97 C91.84821901 102.84820144 87.75153412 107.16785543 82.15234375 109.90234375 C76.28666532 112.35485284 71.1248363 112.85379327 65 110.875 C57.82946717 107.90932331 54.45408535 103.90817069 51 97 C21.3 97 -8.4 97 -39 97 C-37.68 98.65 -36.36 100.3 -35 102 C-33.46785112 105.06429776 -33.77061452 107.6165642 -34 111 C-35.86665049 115.12628003 -38.73204253 117.90868888 -42 121 C-41.34 122.98 -40.68 124.96 -40 127 C-39.27554687 127.02578125 -38.55109375 127.0515625 -37.8046875 127.078125 C-31.64590076 127.43944049 -27.69984231 127.90270157 -23 132 C-20.54401923 135.68397116 -20.7728468 138.44723808 -20.875 142.6875 C-20.91625 145.100625 -20.9575 147.51375 -21 150 C-11.43 150 -1.86 150 8 150 C8.66 148.02 9.32 146.04 10 144 C13.62923969 138.50115199 17.62352158 135.75427072 24 134 C31.0830717 133.01260167 37.18542548 133.64861163 43 138 C47.5372635 142.26442137 50.58649563 146.51406203 51.3359375 152.83203125 C51.43647875 160.50332885 50.72755058 166.0427899 45.3515625 171.75 C39.62213949 176.95401741 34.55136205 178.49131833 26.84765625 178.3046875 C21.36909744 177.71850425 17.0245209 176.07992884 13.14453125 172.09375 C10.44727403 168.6597123 9.07614065 166.30456262 8 162 C-1.57 162 -11.14 162 -21 162 C-21 166.62 -21 171.24 -21 176 C-24.73333333 182.22222222 -24.73333333 182.22222222 -29 184 C-32.65930228 184.53160527 -36.30828104 184.81250464 -40 185 C-40.66 186.98 -41.32 188.96 -42 191 C-41.50628906 191.47050781 -41.01257813 191.94101562 -40.50390625 192.42578125 C-39.86324219 193.04839844 -39.22257812 193.67101562 -38.5625 194.3125 C-37.92441406 194.92738281 -37.28632813 195.54226563 -36.62890625 196.17578125 C-34.29952288 198.78446719 -34.0131528 200.86058028 -33.6875 204.3125 C-34.07518495 208.88718244 -35.75280364 211.75280364 -39 215 C-9.3 215 20.4 215 51 215 C52.32 212.69 53.64 210.38 55 208 C59.85251116 202.42357109 65.00430376 200.45234297 72.3125 199.625 C79.0505839 200.31022887 84.94558883 202.32200197 89.5 207.5 C94.79023997 214.26658601 94.73699805 220.57176594 94 229 C92.48691843 235.09063213 88.92040837 238.33629583 83.90234375 241.87109375 C78.46841713 245.09574425 72.09851617 244.5124197 66 244 C60.04928538 242.34439577 56.41956744 239.02877565 53 234 C52.29555894 232.01299038 51.6227465 230.01410805 51 228 C37.57803269 227.94530747 24.15677954 227.9336617 10.73474884 227.97665405 C4.50195251 227.99527262 -1.7301234 227.99917993 -7.96289062 227.96923828 C-13.98036615 227.94087591 -19.99663942 227.95145587 -26.01405334 227.98880005 C-28.30729423 227.99623462 -30.60062478 227.98974337 -32.89378357 227.96896362 C-36.11217434 227.9422016 -39.3266853 227.96538896 -42.54492188 228 C-43.48863647 227.98058853 -44.43235107 227.96117706 -45.40466309 227.94117737 C-50.88169549 228.06116487 -53.51805551 228.97779595 -57.40344238 232.9375 C-58.00519539 233.64777344 -58.60694839 234.35804688 -59.22693634 235.08984375 C-62.10109365 238.18622978 -64.25026979 238.93184271 -68.4375 239.3125 C-74.71127435 238.76216892 -77.78903265 235.45159405 -82 231 C-83.98 231.66 -85.96 232.32 -88 233 C-88.02578125 233.72445312 -88.0515625 234.44890625 -88.078125 235.1953125 C-88.42905406 241.1770579 -88.83890475 245.363351 -93 250 C-97 252 -97 252 -111 252 C-111 263.88 -111 275.76 -111 288 C-85.92 288 -60.84 288 -35 288 C-34.67 286.35 -34.34 284.7 -34 283 C-31.11970015 278.55750362 -27.27180839 274.16549633 -22.14453125 272.40625 C-15.50120514 271.14776928 -8.49493489 270.59856771 -2.5 274.125 C3.14147454 278.33825313 7.32873768 283.40008666 8.37109375 290.54296875 C8.55026323 297.67812995 7.37431711 303.234771 3 309 C-2.81463382 314.09039117 -8.09355148 316.33426739 -15.84765625 316.21875 C-21.70103207 315.62385155 -26.84930808 313.15069192 -31 309 C-35 303.15081967 -35 303.15081967 -35 300 C-36.04347595 300.00888245 -37.0869519 300.01776489 -38.16204834 300.0269165 C-47.99112581 300.10796883 -57.82013557 300.16794928 -67.64947128 300.20724869 C-72.7029792 300.22813214 -77.75621755 300.25646371 -82.80957031 300.30175781 C-87.68547468 300.34518839 -92.5611196 300.3691314 -97.43720245 300.37950897 C-99.29838394 300.38690535 -101.15955108 300.40134866 -103.02062225 300.42292023 C-105.62571504 300.45191744 -108.22973298 300.45595759 -110.83496094 300.45410156 C-111.60604187 300.46848267 -112.3771228 300.48286377 -113.17156982 300.49768066 C-116.60822175 300.47115069 -118.63927669 300.25398952 -121.48193359 298.25244141 C-123.18758794 295.72166511 -123.48880661 294.52617497 -123.45410156 291.50683594 C-123.45364838 290.18591949 -123.45364838 290.18591949 -123.45318604 288.83831787 C-123.43254089 287.89651672 -123.41189575 286.95471558 -123.390625 285.984375 C-123.38496521 285.01340881 -123.37930542 284.04244263 -123.37347412 283.04205322 C-123.35110311 279.94419831 -123.30090473 276.84750467 -123.25 273.75 C-123.22993597 271.64845422 -123.21168503 269.54689028 -123.1953125 267.4453125 C-123.1512358 262.2964283 -123.08220258 257.14841097 -123 252 C-123.95261719 252.03480469 -124.90523438 252.06960938 -125.88671875 252.10546875 C-127.14097656 252.13253906 -128.39523437 252.15960938 -129.6875 252.1875 C-130.92886719 252.22230469 -132.17023438 252.25710938 -133.44921875 252.29296875 C-138.11350433 251.90812671 -140.6922079 250.49461954 -143.75 247 C-145.63724643 242.47060856 -145.75292239 237.86487297 -146 233 C-148.97 232.01 -148.97 232.01 -152 231 C-155.71402221 233.7540008 -158.65020969 236.17359488 -159.546875 240.85546875 C-159.64143007 242.92780078 -159.7219287 245.00081726 -159.7890625 247.07421875 C-160.30217451 254.19127238 -164.43501681 259.23359515 -169.4921875 263.9921875 C-205.8469557 293.098653 -265.39705395 291.52944999 -309 287 C-333.00698395 284.25832782 -362.07742609 278.45181212 -380 261 C-385.70873519 253.35244909 -387.15777129 247.22734235 -387.11593628 237.78385925 C-387.11623498 236.96035408 -387.11653368 236.1368489 -387.11684144 235.28838903 C-387.11648582 232.53101774 -387.10881778 229.77371715 -387.10107422 227.01635742 C-387.09911495 225.03847791 -387.09753229 223.06059799 -387.09629822 221.0827179 C-387.09014019 214.59027699 -387.07291153 208.09788529 -387.0546875 201.60546875 C-387.04889545 199.36909809 -387.043129 197.13272737 -387.03738785 194.89635658 C-387.01271773 185.59463858 -386.98517497 176.29293678 -386.95004082 166.99125195 C-386.89979293 153.66553164 -386.86641131 140.34001683 -386.85675228 127.01420325 C-386.84860621 117.64072013 -386.82145198 108.26740829 -386.78014576 98.89401323 C-386.75596768 93.29680317 -386.74007762 87.6998573 -386.74441147 82.10259056 C-386.74805097 76.83697276 -386.72812501 71.57196378 -386.69023323 66.30648613 C-386.68040728 64.37641069 -386.67904235 62.44627037 -386.68686104 60.51618576 C-386.69625505 57.8757839 -386.67485246 55.23731329 -386.64596558 52.59709167 C-386.65595672 51.83783345 -386.66594785 51.07857522 -386.67624176 50.29630917 C-386.53061457 42.87275581 -382.80901392 37.95089907 -378.0625 32.5 C-349.97480946 5.92565486 -297.96721536 5.1679723 -262.14624023 6.140625 C-229.77993059 7.38988034 -188.72529587 11.39272287 -165 36 C-160.95074092 40.94909443 -159.88625542 45.03890445 -159.9296875 51.390625 C-159.91384128 53.33772872 -159.89798657 55.28483238 -159.88183594 57.23193359 C-159.87507156 59.22887429 -159.89831378 61.2258431 -159.921875 63.22265625 C-159.91250341 71.64302127 -159.91250341 71.64302127 -155.4453125 78.421875 C-153.61035393 79.94371153 -153.61035393 79.94371153 -152 81 C-150.02 80.34 -148.04 79.68 -146 79 C-145.97421875 78.27554688 -145.9484375 77.55109375 -145.921875 76.8046875 C-145.57094594 70.8229421 -145.16109525 66.636649 -141 62 C-137.38032939 59.53929585 -134.0312452 59.79571768 -129.75 59.875 C-127.85507812 59.90207031 -127.85507812 59.90207031 -125.921875 59.9296875 C-124.47554688 59.96449219 -124.47554688 59.96449219 -123 60 C-123.02094727 58.68805664 -123.04189453 57.37611328 -123.06347656 56.02441406 C-123.1358797 51.15668656 -123.18180113 46.28900665 -123.21972656 41.42089844 C-123.23984126 39.31404618 -123.26713667 37.20724975 -123.30175781 35.10058594 C-123.35028168 32.07212553 -123.37297016 29.04440322 -123.390625 26.015625 C-123.41127014 25.07382385 -123.43191528 24.13202271 -123.45318604 23.16168213 C-123.45348816 22.28107117 -123.45379028 21.40046021 -123.45410156 20.49316406 C-123.46298401 19.72039124 -123.47186646 18.94761841 -123.48101807 18.15142822 C-122.76696118 14.95769758 -121.67217351 13.88150875 -119 12 C-116.145965 11.62592676 -113.68433237 11.49275602 -110.83496094 11.54589844 C-110.0150769 11.54531433 -109.19519287 11.54473022 -108.35046387 11.54412842 C-105.64466789 11.5469117 -102.93997815 11.57801451 -100.234375 11.609375 C-98.3567973 11.61683654 -96.47921181 11.62252988 -94.60162354 11.62652588 C-89.66290742 11.64178909 -84.7246628 11.68107687 -79.78613281 11.7253418 C-74.74550759 11.76627965 -69.70480609 11.78453372 -64.6640625 11.8046875 C-54.77583465 11.84757041 -44.88795655 11.91583012 -35 12 C-34.70480469 11.06414062 -34.40960938 10.12828125 -34.10546875 9.1640625 C-31.82719396 2.64320533 -27.93235116 -0.03382442 -22 -3 C-14.53551065 -5.88947975 -6.68489377 -3.81195447 0 0 Z M-22.875 12.625 C-24.69096593 16.45870585 -24.18366286 19.99319093 -23 24 C-20.85855167 26.66058731 -19.43132584 27.7253011 -16.06640625 28.37109375 C-12.21424695 28.61139858 -10.38180905 28.2437079 -7.0625 26.125 C-4.44802445 23.43129792 -4.05943861 22.51513465 -3.625 18.75 C-4.10747923 13.92520765 -5.40858584 12.20934883 -9 9 C-15.27979378 7.09363403 -18.13604166 8.51790278 -22.875 12.625 Z M-370.4375 41.875 C-373.55234294 45.37208215 -374.49030645 48.03277592 -374.39453125 52.84765625 C-373.48617877 57.80312373 -369.78097923 60.67670258 -365.90234375 63.55859375 C-342.86168897 78.36769574 -311.60958723 83.05345158 -284.6796875 83.203125 C-283.82631805 83.21013931 -282.97294861 83.21715363 -282.09371948 83.22438049 C-279.35409191 83.24178014 -276.61468081 83.24823312 -273.875 83.25 C-272.93692505 83.25067474 -271.9988501 83.25134949 -271.03234863 83.25204468 C-256.50127949 83.23545103 -242.31235105 82.72641323 -228 80 C-227.05833984 79.82307617 -226.11667969 79.64615234 -225.14648438 79.46386719 C-207.73906022 76.08395485 -186.55508589 71.59844483 -174 58 C-171.75817773 54.16012199 -171.33027966 51.46480224 -172 47 C-179.80289245 33.47143561 -197.98158572 28.85562506 -212 25 C-255.62826082 14.10299481 -335.12675921 7.49348923 -370.4375 41.875 Z M-375 72 C-375.07440677 77.99565954 -375.12872362 83.99104758 -375.16479492 89.98706055 C-375.17983947 92.02486862 -375.20028012 94.06264454 -375.22631836 96.1003418 C-375.26289247 99.03702756 -375.27976999 101.97328351 -375.29296875 104.91015625 C-375.30845261 105.81459976 -375.32393646 106.71904327 -375.33988953 107.65089417 C-375.34160295 114.15667949 -374.41420256 118.95505983 -370.265625 124.1875 C-342.87426395 148.81849134 -293.58896177 149.51223753 -259.0625 147.859375 C-243.84554397 146.98757023 -227.54700464 145.84900155 -213 141 C-212.731875 139.741875 -212.46375 138.48375 -212.1875 137.1875 C-211.44281267 133.88959898 -211.0716296 133.0716296 -208.5625 130.5625 C-205.08908523 129.03907247 -203.02659428 128.75901292 -199.3125 128.5625 C-194.97615766 128.41580968 -194.97615766 128.41580968 -191.6875 125.6875 C-190.80271242 123.11566312 -190.80271242 123.11566312 -191.5 121 C-193.0677644 118.81143819 -193.0677644 118.81143819 -195.5625 116.4375 C-198.53761789 113.46238211 -198.92110511 111.8362858 -199.3125 107.6875 C-198.75058175 101.05686464 -194.16035393 96.86699975 -189.578125 92.3828125 C-189.07327576 91.88079315 -188.56842651 91.3787738 -188.04827881 90.86154175 C-186.45353414 89.27788585 -184.85193956 87.70137413 -183.25 86.125 C-182.15969338 85.04473781 -181.0698451 83.9640128 -179.98046875 82.8828125 C-177.32558666 80.24984048 -174.66451897 77.62322338 -172 75 C-172.33 74.01 -172.66 73.02 -173 72 C-173.83917969 72.54527344 -173.83917969 72.54527344 -174.6953125 73.1015625 C-194.69464713 85.64133823 -217.77341874 90.54132528 -241 93 C-241.86117432 93.0942627 -242.72234863 93.18852539 -243.60961914 93.28564453 C-253.08028218 94.20483902 -262.55577682 94.24242412 -272.0625 94.25 C-272.94239594 94.25100708 -273.82229187 94.25201416 -274.72885132 94.25305176 C-307.04977929 94.22815261 -340.50931226 90.90708411 -369.05859375 74.63671875 C-371.92831888 72.92114193 -371.92831888 72.92114193 -375 72 Z M-133 72 C-133.33 76.62 -133.66 81.24 -134 86 C-139.0668146 91.0668146 -145.81395887 93.30969109 -152.75 94.8125 C-157.85367815 93.53658046 -160.64790138 89.90062385 -164 86 C-167.56764285 87.51376081 -169.83706287 89.60513129 -172.546875 92.3515625 C-173.39121094 93.20234375 -174.23554688 94.053125 -175.10546875 94.9296875 C-176.41451172 96.26386719 -176.41451172 96.26386719 -177.75 97.625 C-178.63816406 98.5221875 -179.52632812 99.419375 -180.44140625 100.34375 C-182.63216969 102.55807004 -184.81812763 104.77692435 -187 107 C-185.25984574 110.66745719 -183.36166481 112.5996945 -180.2421875 115.14453125 C-178.2453299 118.1272588 -178.66448663 120.48805027 -179 124 C-179.86661673 126.58894934 -180.74734726 128.91514355 -181.875 131.375 C-182.14441406 132.00277344 -182.41382813 132.63054687 -182.69140625 133.27734375 C-184.72057039 137.86028519 -184.72057039 137.86028519 -187 139 C-191.62 139.33 -196.24 139.66 -201 140 C-201 150.56 -201 161.12 -201 172 C-194.07 172.495 -194.07 172.495 -187 173 C-181.9331854 178.0668146 -179.69030891 184.81395887 -178.1875 191.75 C-179.46341954 196.85367815 -183.09937615 199.64790138 -187 203 C-185.48623919 206.56764285 -183.39486871 208.83706287 -180.6484375 211.546875 C-179.37226563 212.81337891 -179.37226563 212.81337891 -178.0703125 214.10546875 C-177.18085938 214.97816406 -176.29140625 215.85085938 -175.375 216.75 C-174.4778125 217.63816406 -173.580625 218.52632812 -172.65625 219.44140625 C-170.44192996 221.63216969 -168.22307565 223.81812763 -166 226 C-162.33254281 224.25984574 -160.4003055 222.36166481 -157.85546875 219.2421875 C-154.8727412 217.2453299 -152.51194973 217.66448663 -149 218 C-146.41105066 218.86661673 -144.08485645 219.74734726 -141.625 220.875 C-140.99722656 221.14441406 -140.36945313 221.41382813 -139.72265625 221.69140625 C-135.13971481 223.72057039 -135.13971481 223.72057039 -134 226 C-133.505 232.93 -133.505 232.93 -133 240 C-122.44 240 -111.88 240 -101 240 C-100.67 235.38 -100.34 230.76 -100 226 C-94.9331854 220.9331854 -88.18604113 218.69030891 -81.25 217.1875 C-76.14632185 218.46341954 -73.35209862 222.09937615 -70 226 C-66.43235715 224.48623919 -64.16293713 222.39486871 -61.453125 219.6484375 C-60.60878906 218.79765625 -59.76445312 217.946875 -58.89453125 217.0703125 C-58.02183594 216.18085938 -57.14914062 215.29140625 -56.25 214.375 C-55.36183594 213.4778125 -54.47367188 212.580625 -53.55859375 211.65625 C-51.36783031 209.44192996 -49.18187237 207.22307565 -47 205 C-48.74015426 201.33254281 -50.63833519 199.4003055 -53.7578125 196.85546875 C-55.7546701 193.8727412 -55.33551337 191.51194973 -55 188 C-54.13338327 185.41105066 -53.25265274 183.08485645 -52.125 180.625 C-51.72087891 179.68333984 -51.72087891 179.68333984 -51.30859375 178.72265625 C-49.27942961 174.13971481 -49.27942961 174.13971481 -47 173 C-42.38 172.67 -37.76 172.34 -33 172 C-33 161.44 -33 150.88 -33 140 C-39.93 139.505 -39.93 139.505 -47 139 C-52.0668146 133.9331854 -54.30969109 127.18604113 -55.8125 120.25 C-54.53658046 115.14632185 -50.90062385 112.35209862 -47 109 C-48.51376081 105.43235715 -50.60513129 103.16293713 -53.3515625 100.453125 C-54.20234375 99.60878906 -55.053125 98.76445312 -55.9296875 97.89453125 C-56.81914062 97.02183594 -57.70859375 96.14914063 -58.625 95.25 C-59.5221875 94.36183594 -60.419375 93.47367188 -61.34375 92.55859375 C-63.55807004 90.36783031 -65.77692435 88.18187237 -68 86 C-71.66745719 87.74015426 -73.5996945 89.63833519 -76.14453125 92.7578125 C-79.1272588 94.7546701 -81.48805027 94.33551337 -85 94 C-87.58894934 93.13338327 -89.91514355 92.25265274 -92.375 91.125 C-93.00277344 90.85558594 -93.63054687 90.58617187 -94.27734375 90.30859375 C-98.86028519 88.27942961 -98.86028519 88.27942961 -100 86 C-100.33 81.38 -100.66 76.76 -101 72 C-111.56 72 -122.12 72 -133 72 Z M65 82 C62.71124482 85.21856197 62 87.11858134 62 91.0625 C63.29024732 94.8526015 64.84789933 96.54836614 68 99 C71.83050005 100.30400002 73.45733544 100.20871714 77.25 98.75 C80.20562722 97.12940334 80.20562722 97.12940334 82 94 C82.4408216 89.44484344 82.63155339 87.11736369 80.375 83.125 C75.03387303 78.34609692 71.10408768 78.3145131 65 82 Z M-375 136 C-375.07439398 142.13807552 -375.12871769 148.27588608 -375.16479492 154.41430664 C-375.17984159 156.5006162 -375.20028382 158.58689433 -375.22631836 160.6730957 C-375.26288295 163.67927831 -375.2797679 166.68504112 -375.29296875 169.69140625 C-375.30845261 170.61772354 -375.32393646 171.54404083 -375.33988953 172.49842834 C-375.34173883 179.6835412 -374.30855671 184.47669383 -369.3125 189.9375 C-343.59248131 209.98948962 -305.14818729 212.22857852 -273.875 212.25 C-272.98838684 212.25067474 -272.10177368 212.25134949 -271.18829346 212.25204468 C-247.82360082 212.2238843 -220.35538903 211.67769451 -199 201 C-197.31865712 198.64225405 -197.31865712 198.64225405 -196 196 C-194.37163262 194.2958946 -192.71230248 192.61974559 -191 191 C-191.96776098 187.20452079 -191.96776098 187.20452079 -194 184 C-195.72723342 183.86758858 -197.45712778 183.76923148 -199.1875 183.6875 C-204.35730341 183.2706888 -207.09884055 182.387849 -211 179 C-212.28605661 176.42788678 -212.21043941 174.43093034 -212.31640625 171.5546875 C-212.37924805 169.94013672 -212.37924805 169.94013672 -212.44335938 168.29296875 C-212.48267578 167.16503906 -212.52199219 166.03710938 -212.5625 164.875 C-212.60568359 163.73933594 -212.64886719 162.60367188 -212.69335938 161.43359375 C-212.7996604 158.62252232 -212.90169405 155.81136055 -213 153 C-213.59087402 153.11069824 -214.18174805 153.22139648 -214.79052734 153.33544922 C-266.3101492 162.83292795 -326.25179977 164.02767885 -373 137 C-373.66 136.67 -374.32 136.34 -375 136 Z M20 151 C18.54852097 153.90295805 18.62760975 155.77261779 19 159 C20.81310142 161.92937654 22.87295899 164.43647949 26 166 C31.26883876 166.59873168 33.8846468 165.25400021 38 162 C39.60847182 158.78305636 39.61309149 155.47862778 39 152 C36.07811368 148.38608798 33.88374526 146.25687435 29.25 145.625 C24.7246142 146.1471599 23.2328897 147.84229378 20 151 Z M-375 201 C-375.07440677 206.99565954 -375.12872362 212.99104758 -375.16479492 218.98706055 C-375.17983947 221.02486862 -375.20028012 223.06264454 -375.22631836 225.1003418 C-375.26289247 228.03702756 -375.27976999 230.97328351 -375.29296875 233.91015625 C-375.30845261 234.81459976 -375.32393646 235.71904327 -375.33988953 236.65089417 C-375.34160916 243.18026569 -374.42543082 248.0128352 -370.1953125 253.22265625 C-342.06567722 278.2208793 -291.46199886 278.72652516 -256.09765625 276.6875 C-237.69603928 275.44778067 -219.81010448 272.88639707 -202.25 267.125 C-201.28642578 266.80966309 -200.32285156 266.49432617 -199.33007812 266.16943359 C-189.41879514 262.73900168 -176.99479048 257.98958096 -172 248 C-170.78060913 242.59571375 -171.03991898 238.54604045 -173.99609375 233.78564453 C-176.26720517 230.90140023 -178.76900998 228.2786402 -181.375 225.6965332 C-183.00092427 224.06157059 -184.52660346 222.36184692 -186.0625 220.64257812 C-191.12683105 215.17154386 -191.12683105 215.17154386 -197.9715271 212.89123535 C-202.25324224 213.39407363 -206.19205702 214.79295799 -210.19769287 216.33676147 C-212.58777916 217.21629931 -214.98820866 217.72657874 -217.48828125 218.1953125 C-218.29845703 218.35386719 -219.10863281 218.51242187 -219.94335938 218.67578125 C-220.72517578 218.82402344 -221.50699219 218.97226562 -222.3125 219.125 C-223.08271484 219.28097656 -223.85292969 219.43695313 -224.64648438 219.59765625 C-240.33218415 222.60315059 -256.12786832 223.37930558 -272.0625 223.3125 C-272.95020081 223.31100952 -273.83790161 223.30951904 -274.75250244 223.3079834 C-306.24456671 223.21344865 -338.3871137 219.65588027 -366.57421875 204.76953125 C-369.35993808 203.33061351 -372.08546262 202.13400189 -375 201 Z M64 216 C61.89142547 218.65863745 61.99976386 219.98701207 62.0625 223.4375 C63.18679757 227.70983076 64.52757749 229.31676442 68 232 C71.41161628 233.39963745 72.65034227 233.13286994 76.125 231.8125 C79.76989743 229.52589258 79.76989743 229.52589258 82 226 C82.62524305 221.076211 82.80394312 219.1450099 79.9375 215.0625 C73.8628588 210.79732639 69.56232682 211.2138118 64 216 Z M-23 288 C-24.26881355 291.73555721 -24.78837377 295.1904945 -23.1796875 298.8828125 C-20.97987578 301.89844844 -19.03452659 302.98951871 -15.5 304.0625 C-10.69183499 303.97663991 -8.56929135 302.51517785 -5.1875 299.25 C-3.45431891 295.96607794 -3.55067367 293.65880015 -4 290 C-5.79562405 287.24670979 -7.05254922 285.47372539 -10 284 C-15.63381344 283.53821201 -19.21104081 283.29250524 -23 288 Z " fill="#000000" transform="translate(402,100)"/>
<path d="M0 0 C9.05177256 8.21170086 12.73968188 18.94413732 13.5625 30.875 C13.36476612 42.36553561 8.75779018 53.14255767 1.10546875 61.62109375 C-7.401299 69.34946445 -18.90710017 73.661852 -30.35546875 73.46484375 C-41.95508245 72.39620262 -52.64416926 67.75625625 -60.6875 59.25 C-68.33476671 49.73140214 -71.73952329 38.43434247 -70.6875 26.25 C-68.66871648 15.23411826 -63.68724438 4.24981741 -54.36328125 -2.41015625 C-36.3075445 -13.66388497 -16.91728067 -13.33436315 0 0 Z M-49.5 10.0390625 C-56.15434098 17.22020547 -58.91659492 24.43934691 -58.6875 34.25 C-56.92673548 44.37803393 -51.80938254 51.17397045 -43.6875 57.25 C-36.4632891 61.33917598 -28.36302018 62.26401761 -20.375 60.0625 C-11.47698047 56.91872023 -5.42160669 51.08025516 -0.8125 42.9375 C2.28782154 32.77533496 1.59227862 24.44513739 -3.375 15.0625 C-9.59870473 7.49312938 -16.11131686 2.70830559 -26 1.375 C-35.04790845 0.76600616 -43.01848142 3.64135666 -49.5 10.0390625 Z " fill="#000000" transform="translate(313.6875,224.75)"/>
<path d="M0 0 C4.80912847 0.09671008 9.90862658 1.90862658 13.375 5.375 C13.84131746 10.73765075 13.84131746 10.73765075 12.12890625 13.078125 C9.29658992 15.17239899 7.00387107 14.38821109 3.66796875 13.8984375 C0.25664652 13.11970295 -3.10936019 11.89063981 -5.625 9.375 C-5.8125 5.9375 -5.8125 5.9375 -5.625 2.375 C-3.625 0.375 -3.625 0.375 0 0 Z " fill="#000000" transform="translate(48.625,331.625)"/>
<path d="M0 0 C4.83278342 1.93509808 4.83278342 1.93509808 6.02734375 4.32421875 C6.59125352 9.62497063 6.59125352 9.62497063 4.46484375 12.26171875 C0.94482071 13.79608777 -1.275322 13.21667874 -4.97265625 12.32421875 C-8.19815362 10.92447461 -10.48898456 9.80789044 -12.97265625 7.32421875 C-13.34765625 4.38671875 -13.34765625 4.38671875 -12.97265625 1.32421875 C-9.38785613 -3.1209334 -4.89581845 -1.67718137 0 0 Z " fill="#000000" transform="translate(55.97265625,268.67578125)"/>
<path d="M0 0 C4.80912847 0.09671008 9.90862658 1.90862658 13.375 5.375 C13.84131746 10.73765075 13.84131746 10.73765075 12.12890625 13.078125 C9.29658992 15.17239899 7.00387107 14.38821109 3.66796875 13.8984375 C0.25664652 13.11970295 -3.10936019 11.89063981 -5.625 9.375 C-5.8125 5.9375 -5.8125 5.9375 -5.625 2.375 C-3.625 0.375 -3.625 0.375 0 0 Z " fill="#000000" transform="translate(48.625,202.625)"/>
</svg>
